<svg width="209" height="42" viewBox="0 0 209 42" fill="none" xmlns="http://www.w3.org/2000/svg">
<g clip-path="url(#clip0_145_254)">
<path d="M172.856 28.1133H170.18V41.6615H172.856V28.1133Z" fill="white"/>
<path d="M191.592 32.8558C191.592 30.2413 189.49 28.1133 186.908 28.1133H179.547V41.6615H182.223V37.5967H186.617L188.051 41.6615H190.923L189.26 36.9481C190.652 36.125 191.592 34.5998 191.592 32.8542V32.8558ZM186.908 35.227H182.223V30.4845H186.908C188.015 30.4845 188.914 31.5478 188.914 32.8558C188.914 34.1638 188.014 35.227 186.908 35.227Z" fill="white"/>
<path d="M67.8125 41.663H77.8493V39.2918H70.4902V36.2428H77.1814V33.8716H70.4902V30.4845H77.8493V28.1133H67.8125V41.663Z" fill="white"/>
<path d="M58.4455 37.5982L52.0505 28.1133H49.0781V28.2097V41.663H51.7543V32.178L58.1508 41.663H61.1217V28.1133H58.4455V37.5982Z" fill="white"/>
<path d="M153.449 41.663H163.486V39.2918H156.125V36.2428H162.149V33.8716H156.125V30.4845H163.486V28.1133H153.449V41.663Z" fill="white"/>
<path d="M33.6875 41.663H36.3652V37.5982H40.3681L41.2068 35.227H36.3652V30.4845H42.8856L43.7243 28.1133H33.6875V41.663Z" fill="white"/>
<path d="M4.91486 28.1133H-0.4375V41.6615H4.91486C8.60348 41.6615 11.6061 38.6232 11.6061 34.8874C11.6061 31.1515 8.60348 28.1133 4.91486 28.1133ZM4.91486 39.2918H2.23868V30.4861H4.91486C7.12864 30.4861 8.92988 32.4611 8.92988 34.8889C8.92988 37.3167 7.12864 39.2918 4.91486 39.2918Z" fill="white"/>
<path d="M98.9275 27.7734C95.047 27.7734 91.9023 30.9585 91.9023 34.8856C91.9023 38.8127 95.0485 41.9978 98.9275 41.9978C102.807 41.9978 105.953 38.8127 105.953 34.8856C105.953 30.9585 102.807 27.7734 98.9275 27.7734ZM98.9094 39.5822C96.5082 39.5822 94.568 37.4802 94.577 34.8872C94.5861 32.2941 96.5415 30.1921 98.9441 30.1921C101.347 30.1921 103.286 32.2941 103.276 34.8872C103.267 37.4802 101.312 39.5822 98.9094 39.5822Z" fill="white"/>
<path d="M113.981 39.2918V28.1133H111.305V41.663H121.341L120.501 39.2918H113.981Z" fill="white"/>
<path d="M129.372 28.1133H126.695V41.6615H129.372V28.1133Z" fill="white"/>
<path d="M141.411 38.9521L137.557 28.1133H134.715L139.511 41.663H143.313L148.108 28.1133H145.264L141.411 38.9521Z" fill="white"/>
<path d="M204.202 28.1133H200.4L195.605 41.663H198.448L202.301 30.8241L206.155 41.663H208.998L204.202 28.1133Z" fill="white"/>
<path d="M19.7362 28.1133L14.9414 41.663H17.7838L21.6371 30.8241L25.4905 41.663H28.3344L23.5381 28.1133H19.7362Z" fill="white"/>
<path d="M118.334 0C114.453 0 111.309 3.18511 111.309 7.11219C111.309 11.0393 114.455 14.2244 118.334 14.2244C122.213 14.2244 125.359 11.0393 125.359 7.11219C125.359 3.18511 122.214 0 118.334 0ZM118.317 11.8088C115.916 11.8088 113.976 9.70678 113.985 7.11372C113.994 4.52065 115.949 2.41866 118.352 2.41866C120.755 2.41866 122.693 4.52065 122.684 7.11372C122.675 9.70678 120.72 11.8088 118.317 11.8088Z" fill="#575756"/>
<path d="M18.2971 9.8248L11.9005 0.339844H8.92969V0.436223V13.8896H11.6059V4.40461L18.0009 13.8896H20.9732V0.339844H18.2971V9.8248Z" fill="#575756"/>
<path d="M2.23868 0.339844H-0.4375V13.888H2.23868V0.339844Z" fill="#575756"/>
<path d="M60.1215 0.339844H57.4453V13.888H60.1215V0.339844Z" fill="#575756"/>
<path d="M89.2234 8.97727C89.2234 10.5652 87.948 11.8564 86.3795 11.8564C84.8109 11.8564 83.5355 10.5652 83.5355 8.97727V0.339844H80.8594V8.63765C80.8594 11.7187 83.3361 14.2261 86.3795 14.2261C89.4228 14.2261 91.8995 11.7187 91.8995 8.63765V0.339844H89.2234V8.97727Z" fill="#575756"/>
<path d="M47.0731 0.339844H45.7358H42.0547V2.70955H45.7358V13.888H48.4119V2.70955H52.0915V0.339844H48.4119H47.0731Z" fill="#575756"/>
<path d="M70.4872 0.339844H69.1498H65.4688V2.70955H69.1498V13.888H71.826V2.70955H75.5071V0.339844H71.826H70.4872Z" fill="#575756"/>
<path d="M102.272 0.339844H100.933H97.2539V2.70955H100.933V13.888H103.61V2.70955H107.291V0.339844H103.61H102.272Z" fill="#575756"/>
<path d="M35.8466 7.11372C35.1016 6.57063 33.8398 6.22947 32.3891 5.85619C30.7118 5.42325 29.7704 5.16165 29.6631 4.06476C29.5981 3.39011 30.1648 2.37124 32.3393 2.37124C34.074 2.37124 35.6682 3.71443 35.6849 3.72667L37.0947 1.57114C36.9995 1.50688 34.7283 0 32.173 0C27.3874 0 27.0156 3.24018 27.0156 4.23457C27.0156 5.22896 27.5082 6.41917 28.4633 7.11372C29.2098 7.65681 30.47 7.99643 31.9207 8.37124C33.598 8.80418 34.5394 9.06578 34.6467 10.1627C34.7117 10.8373 34.145 11.8562 31.9706 11.8562C30.2373 11.8562 28.6416 10.513 28.625 10.5008L27.2151 12.6548C27.3103 12.719 29.583 14.2259 32.1368 14.2259C36.9225 14.2259 37.2942 10.9842 37.2942 9.99133C37.2942 8.99847 36.8016 7.80673 35.8466 7.11219V7.11372Z" fill="#575756"/>
</g>
<defs>
<clipPath id="clip0_145_254">
<rect width="209" height="42" fill="white"/>
</clipPath>
</defs>
</svg>
