<svg width="34" height="34" viewBox="0 0 34 34" fill="none" xmlns="http://www.w3.org/2000/svg">
<rect width="34" height="34" rx="17" fill="white"/>
<path d="M24.3125 9.59375C26.2812 11.5625 27.5 14.1406 27.5 16.9531C27.5 22.6719 22.7188 27.3594 16.9531 27.3594C15.2188 27.3594 13.5312 26.8906 11.9844 26.0938L6.5 27.5L7.95312 22.1094C7.0625 20.5625 6.54688 18.7812 6.54688 16.9062C6.54688 11.1875 11.2344 6.5 16.9531 6.5C19.7656 6.5 22.3906 7.625 24.3125 9.59375ZM16.9531 25.5781C21.7344 25.5781 25.7188 21.6875 25.7188 16.9531C25.7188 14.6094 24.7344 12.4531 23.0938 10.8125C21.4531 9.17188 19.2969 8.28125 17 8.28125C12.2188 8.28125 8.32812 12.1719 8.32812 16.9062C8.32812 18.5469 8.79688 20.1406 9.64062 21.5469L9.875 21.875L8.98438 25.0625L12.2656 24.1719L12.5469 24.3594C13.9062 25.1562 15.4062 25.5781 16.9531 25.5781ZM21.7344 19.1094C21.9688 19.25 22.1562 19.2969 22.2031 19.4375C22.2969 19.5312 22.2969 20.0469 22.0625 20.6562C21.8281 21.2656 20.7969 21.8281 20.3281 21.875C19.4844 22.0156 18.8281 21.9688 17.1875 21.2188C14.5625 20.0938 12.875 17.4688 12.7344 17.3281C12.5938 17.1406 11.7031 15.9219 11.7031 14.6094C11.7031 13.3438 12.3594 12.7344 12.5938 12.4531C12.8281 12.1719 13.1094 12.125 13.2969 12.125C13.4375 12.125 13.625 12.125 13.7656 12.125C13.9531 12.125 14.1406 12.0781 14.375 12.5938C14.5625 13.1094 15.125 14.375 15.1719 14.5156C15.2188 14.6562 15.2656 14.7969 15.1719 14.9844C14.7031 15.9688 14.1406 15.9219 14.4219 16.3906C15.4531 18.125 16.4375 18.7344 17.9844 19.4844C18.2188 19.625 18.3594 19.5781 18.5469 19.4375C18.6875 19.25 19.2031 18.6406 19.3438 18.4062C19.5312 18.125 19.7188 18.1719 19.9531 18.2656C20.1875 18.3594 21.4531 18.9688 21.7344 19.1094Z" fill="#BFAB5C"/>
</svg>
