<svg width="79" height="79" viewBox="0 0 79 79" fill="none" xmlns="http://www.w3.org/2000/svg">
<rect width="79" height="79" rx="39.5" fill="white"/>
<path d="M39.5 28.7188C45.4062 28.7188 50.2812 33.5938 50.2812 39.5C50.2812 45.5 45.4062 50.2812 39.5 50.2812C33.5 50.2812 28.7188 45.5 28.7188 39.5C28.7188 33.5938 33.5 28.7188 39.5 28.7188ZM39.5 46.5312C43.3438 46.5312 46.4375 43.4375 46.4375 39.5C46.4375 35.6562 43.3438 32.5625 39.5 32.5625C35.5625 32.5625 32.4688 35.6562 32.4688 39.5C32.4688 43.4375 35.6562 46.5312 39.5 46.5312ZM53.1875 28.3438C53.1875 29.75 52.0625 30.875 50.6562 30.875C49.25 30.875 48.125 29.75 48.125 28.3438C48.125 26.9375 49.25 25.8125 50.6562 25.8125C52.0625 25.8125 53.1875 26.9375 53.1875 28.3438ZM60.3125 30.875C60.5 34.3438 60.5 44.75 60.3125 48.2188C60.125 51.5938 59.375 54.5 56.9375 57.0312C54.5 59.4688 51.5 60.2188 48.125 60.4062C44.6562 60.5938 34.25 60.5938 30.7812 60.4062C27.4062 60.2188 24.5 59.4688 21.9688 57.0312C19.5312 54.5 18.7812 51.5938 18.5938 48.2188C18.4062 44.75 18.4062 34.3438 18.5938 30.875C18.7812 27.5 19.5312 24.5 21.9688 22.0625C24.5 19.625 27.4062 18.875 30.7812 18.6875C34.25 18.5 44.6562 18.5 48.125 18.6875C51.5 18.875 54.5 19.625 56.9375 22.0625C59.375 24.5 60.125 27.5 60.3125 30.875ZM55.8125 51.875C56.9375 49.1562 56.6562 42.5938 56.6562 39.5C56.6562 36.5 56.9375 29.9375 55.8125 27.125C55.0625 25.3438 53.6562 23.8438 51.875 23.1875C49.0625 22.0625 42.5 22.3438 39.5 22.3438C36.4062 22.3438 29.8438 22.0625 27.125 23.1875C25.25 23.9375 23.8438 25.3438 23.0938 27.125C21.9688 29.9375 22.25 36.5 22.25 39.5C22.25 42.5938 21.9688 49.1562 23.0938 51.875C23.8438 53.75 25.25 55.1562 27.125 55.9062C29.8438 57.0312 36.4062 56.75 39.5 56.75C42.5 56.75 49.0625 57.0312 51.875 55.9062C53.6562 55.1562 55.1562 53.75 55.8125 51.875Z" fill="#BFAB5C"/>
</svg>
