<svg width="397" height="40" viewBox="0 0 397 40" fill="none" xmlns="http://www.w3.org/2000/svg">
<g clip-path="url(#clip0_159_111)">
<path d="M2.96278 20H0C0 28.4112 5.22056 35.6218 12.5897 38.5722V35.3406C6.89714 32.5796 2.96278 26.7415 2.96278 20Z" fill="#CBB663"/>
<path d="M19.9945 0C19.4963 0 19.0025 0.0262257 18.5131 0.0626502V6.54622C16.4825 4.34909 13.5868 2.9635 10.3662 2.9635H8.99547C8.92992 3.44868 8.88477 3.94114 8.88477 4.44525C8.88477 10.0677 13.0857 14.717 18.5131 15.4455V22.1039C16.484 19.9038 13.5882 18.5182 10.3662 18.5182H8.99547C8.92992 19.0034 8.88477 19.4959 8.88477 20C8.88477 25.6225 13.0857 30.2732 18.5131 31.0002V39.9373C19.0025 39.9738 19.4949 40 19.9945 40C31.0197 40 39.9896 31.0279 39.9896 20C39.9896 8.9721 31.0197 0 19.9945 0ZM12.0165 6.09456C15.1876 6.74874 17.6915 9.2533 18.3456 12.4251C15.1745 11.771 12.6705 9.26641 12.0165 6.09456ZM12.0165 21.6493C15.1876 22.3035 17.6915 24.808 18.3456 27.9799C15.1745 27.3257 12.6705 24.8212 12.0165 21.6493ZM21.4759 36.9738V31.0017C26.9018 30.2732 31.1042 25.624 31.1042 20C31.1042 19.4959 31.059 19.0049 30.9935 18.5182H29.6228C26.4007 18.5182 23.505 19.9038 21.4759 22.1039V3.02615C30.1778 3.77941 37.0268 11.1037 37.0268 20C37.0268 28.8963 30.1763 36.2206 21.4759 36.9738ZM21.6434 27.9799C22.2974 24.808 24.8014 22.3035 27.9724 21.6493C27.3184 24.8212 24.8145 27.3257 21.6434 27.9799Z" fill="#CBB663"/>
<path d="M362.158 13.5508H359.578V26.4538H362.158V13.5508Z" fill="#CBB663"/>
<path d="M380.22 18.0635C380.22 15.5735 378.194 13.5469 375.705 13.5469H368.609V26.4499H371.189V22.5787H375.425L376.807 26.4499H379.575L377.973 21.9609C379.314 21.1771 380.22 19.7245 380.22 18.0621V18.0635ZM375.705 20.3218H371.189V15.8052H375.705C376.772 15.8052 377.639 16.8178 377.639 18.0635C377.639 19.3092 376.771 20.3218 375.705 20.3218Z" fill="#CBB663"/>
<path d="M260.902 26.4538H270.577V24.1955H263.482V21.2932H269.932V19.0349H263.482V15.8091H270.577V13.5508H260.902V26.4538Z" fill="#CBB663"/>
<path d="M251.873 22.5826L245.707 13.5508H242.842V13.6411V26.4538H245.423V17.422L251.587 26.4538H254.453V13.5508H251.873V22.5826Z" fill="#CBB663"/>
<path d="M343.453 26.4538H353.128V24.1955H346.033V21.2932H351.839V19.0349H346.033V15.8091H353.128V13.5508H343.453V26.4538Z" fill="#CBB663"/>
<path d="M228.008 26.4538H230.588V22.5826H234.446L235.256 20.3243H230.588V15.8091H236.873L237.683 13.5508H228.008V26.4538Z" fill="#CBB663"/>
<path d="M200.273 13.5508H195.113V26.4538H200.273C203.828 26.4538 206.723 23.5603 206.723 20.0023C206.723 16.4443 203.828 13.5508 200.273 13.5508ZM200.273 24.1955H197.693V15.8091H200.273C202.407 15.8091 204.143 17.6901 204.143 20.0023C204.143 22.3145 202.407 24.1955 200.273 24.1955Z" fill="#CBB663"/>
<path d="M290.897 13.2266C287.156 13.2266 284.125 16.26 284.125 20.0001C284.125 23.7401 287.158 26.7736 290.897 26.7736C294.636 26.7736 297.669 23.7401 297.669 20.0001C297.669 16.26 294.636 13.2266 290.897 13.2266ZM290.879 24.473C288.565 24.473 286.695 22.4711 286.703 20.0015C286.712 17.5319 288.597 15.5301 290.913 15.5301C293.229 15.5301 295.098 17.5319 295.089 20.0015C295.08 22.4711 293.195 24.473 290.879 24.473Z" fill="#CBB663"/>
<path d="M305.408 24.1955V13.5508H302.828V26.4538H312.503L311.693 24.1955H305.408Z" fill="#CBB663"/>
<path d="M320.244 13.5508H317.664V26.4538H320.244V13.5508Z" fill="#CBB663"/>
<path d="M331.85 23.8735L328.136 13.5508H325.395L330.018 26.4538H333.684L338.306 13.5508H335.565L331.85 23.8735Z" fill="#CBB663"/>
<path d="M392.377 13.5508H388.712L384.09 26.4538H386.831L390.544 16.1311L394.26 26.4538H397L392.377 13.5508Z" fill="#CBB663"/>
<path d="M214.559 13.5508L209.938 26.4538H212.679L216.393 16.1311L220.108 26.4538H222.848L218.224 13.5508H214.559Z" fill="#CBB663"/>
<path d="M174.795 13.2266C171.055 13.2266 168.023 16.26 168.023 20.0001C168.023 23.7401 171.056 26.7736 174.795 26.7736C178.534 26.7736 181.567 23.7401 181.567 20.0001C181.567 16.26 178.534 13.2266 174.795 13.2266ZM174.779 24.473C172.465 24.473 170.594 22.4711 170.603 20.0015C170.612 17.5319 172.497 15.5301 174.813 15.5301C177.129 15.5301 178.998 17.5319 178.989 20.0015C178.98 22.4711 177.095 24.473 174.779 24.473Z" fill="white"/>
<path d="M78.3675 22.5826L72.2016 13.5508H69.3379V13.6411V26.4538H71.9176V17.422L78.082 26.4538H80.9472V13.5508H78.3675V22.5826Z" fill="white"/>
<path d="M62.8863 13.5508H60.3066V26.4538H62.8863V13.5508Z" fill="white"/>
<path d="M118.679 13.5508H116.1V26.4538H118.679V13.5508Z" fill="white"/>
<path d="M146.736 21.7769C146.736 23.2893 145.507 24.5189 143.995 24.5189C142.483 24.5189 141.254 23.2893 141.254 21.7769V13.5508H138.674V21.4535C138.674 24.3878 141.061 26.7758 143.995 26.7758C146.929 26.7758 149.316 24.3878 149.316 21.4535V13.5508H146.736V21.7769Z" fill="white"/>
<path d="M107.392 13.5508H106.101H104.812H101.264V15.8091H104.812V26.4538H107.392V15.8091H110.939V13.5508H107.392Z" fill="white"/>
<path d="M129.966 13.5508H128.676H127.387H123.84V15.8091H127.387V26.4538H129.966H129.968L129.966 15.8091H133.515V13.5508H129.966Z" fill="white"/>
<path d="M160.607 13.5508H159.316H158.027H154.479V15.8091H158.025V26.4538H158.027H160.607V15.8091H164.153V13.5508H160.607Z" fill="white"/>
<path d="M95.284 20.0015C94.5659 19.4843 93.3496 19.1594 91.9513 18.8039C90.3344 18.3916 89.4269 18.1424 89.3235 17.0978C89.2609 16.4552 89.8071 15.4849 91.9032 15.4849C93.5754 15.4849 95.1121 16.7641 95.1282 16.7758L96.4872 14.7229C96.3954 14.6617 94.2047 13.2266 91.743 13.2266C87.1298 13.2266 86.7715 16.3125 86.7715 17.2595C86.7715 18.2065 87.2463 19.3401 88.1669 20.0015C88.8865 20.5188 90.1013 20.8422 91.4997 21.1992C93.1166 21.6115 94.024 21.8606 94.1275 22.9053C94.1901 23.5478 93.6439 24.5182 91.5478 24.5182C89.877 24.5182 88.3388 23.2389 88.3228 23.2273L86.9638 25.2787C87.0555 25.3399 89.2463 26.775 91.708 26.775C96.3211 26.775 96.6795 23.6877 96.6795 22.7421C96.6795 21.7965 96.2046 20.6615 95.284 20.0001V20.0015Z" fill="white"/>
</g>
<defs>
<clipPath id="clip0_159_111">
<rect width="397" height="40" fill="white"/>
</clipPath>
</defs>
</svg>
