<svg width="79" height="79" viewBox="0 0 79 79" fill="none" xmlns="http://www.w3.org/2000/svg">
<rect width="79" height="79" rx="39.5" fill="white"/>
<path d="M54.125 24.6875C58.0625 28.625 60.5 33.7812 60.5 39.4062C60.5 50.8438 50.9375 60.2188 39.4062 60.2188C35.9375 60.2188 32.5625 59.2812 29.4688 57.6875L18.5 60.5L21.4062 49.7188C19.625 46.625 18.5938 43.0625 18.5938 39.3125C18.5938 27.875 27.9688 18.5 39.4062 18.5C45.0312 18.5 50.2812 20.75 54.125 24.6875ZM39.4062 56.6562C48.9688 56.6562 56.9375 48.875 56.9375 39.4062C56.9375 34.7188 54.9688 30.4062 51.6875 27.125C48.4062 23.8438 44.0938 22.0625 39.5 22.0625C29.9375 22.0625 22.1562 29.8438 22.1562 39.3125C22.1562 42.5938 23.0938 45.7812 24.7812 48.5938L25.25 49.25L23.4688 55.625L30.0312 53.8438L30.5938 54.2188C33.3125 55.8125 36.3125 56.6562 39.4062 56.6562ZM48.9688 43.7188C49.4375 44 49.8125 44.0938 49.9062 44.375C50.0938 44.5625 50.0938 45.5938 49.625 46.8125C49.1562 48.0312 47.0938 49.1562 46.1562 49.25C44.4688 49.5312 43.1562 49.4375 39.875 47.9375C34.625 45.6875 31.25 40.4375 30.9688 40.1562C30.6875 39.7812 28.9062 37.3438 28.9062 34.7188C28.9062 32.1875 30.2188 30.9688 30.6875 30.4062C31.1562 29.8438 31.7188 29.75 32.0938 29.75C32.375 29.75 32.75 29.75 33.0312 29.75C33.4062 29.75 33.7812 29.6562 34.25 30.6875C34.625 31.7188 35.75 34.25 35.8438 34.5312C35.9375 34.8125 36.0312 35.0938 35.8438 35.4688C34.9062 37.4375 33.7812 37.3438 34.3438 38.2812C36.4062 41.75 38.375 42.9688 41.4688 44.4688C41.9375 44.75 42.2188 44.6562 42.5938 44.375C42.875 44 43.9062 42.7812 44.1875 42.3125C44.5625 41.75 44.9375 41.8438 45.4062 42.0312C45.875 42.2188 48.4062 43.4375 48.9688 43.7188Z" fill="#BFAB5C"/>
</svg>
