<svg width="107" height="37" viewBox="0 0 107 37" fill="none" xmlns="http://www.w3.org/2000/svg">
<path d="M87 25L105 7" stroke="#F1F1E5" stroke-width="4" stroke-linecap="round"/>
<path d="M105 25L87 7" stroke="#F1F1E5" stroke-width="4" stroke-linecap="round"/>
<path d="M23.4259 11.824H16.9299V16.224H22.7219V17.248H16.9299V22H15.7459V10.8H23.4259V11.824ZM32.6936 17.792C32.6936 17.888 32.6776 18.016 32.6776 18.144H25.6376C25.7656 19.904 27.1096 21.072 28.9496 21.072C29.9736 21.072 30.8856 20.704 31.5256 19.968L32.1656 20.704C31.4136 21.6 30.2456 22.08 28.9176 22.08C26.2936 22.08 24.5016 20.288 24.5016 17.792C24.5016 15.296 26.2456 13.52 28.6136 13.52C30.9816 13.52 32.6936 15.264 32.6936 17.792ZM28.6136 14.496C26.9816 14.496 25.7816 15.648 25.6376 17.296H31.6056C31.4616 15.648 30.2616 14.496 28.6136 14.496ZM38.4939 22.08C35.9819 22.08 34.1579 20.304 34.1579 17.792C34.1579 15.28 35.9819 13.52 38.4939 13.52C39.9179 13.52 41.1179 14.08 41.7899 15.184L40.9419 15.76C40.3659 14.912 39.4699 14.512 38.4939 14.512C36.6539 14.512 35.3099 15.824 35.3099 17.792C35.3099 19.776 36.6539 21.072 38.4939 21.072C39.4699 21.072 40.3659 20.688 40.9419 19.84L41.7899 20.416C41.1179 21.504 39.9179 22.08 38.4939 22.08ZM48.1845 13.52C50.2325 13.52 51.6405 14.704 51.6405 17.12V22H50.5045V17.232C50.5045 15.456 49.5765 14.544 47.9765 14.544C46.1685 14.544 45.0325 15.664 45.0325 17.584V22H43.8965V10.128H45.0325V15.056C45.6565 14.08 46.7605 13.52 48.1845 13.52ZM57.6686 13.52C59.8446 13.52 61.0766 14.608 61.0766 16.784V22H59.9886V20.688C59.4766 21.552 58.4846 22.08 57.0926 22.08C55.1886 22.08 54.0206 21.088 54.0206 19.632C54.0206 18.336 54.8526 17.248 57.2686 17.248H59.9406V16.736C59.9406 15.296 59.1246 14.512 57.5566 14.512C56.4686 14.512 55.4446 14.896 54.7566 15.504L54.2446 14.656C55.0926 13.936 56.3406 13.52 57.6686 13.52ZM57.2686 21.184C58.5486 21.184 59.4926 20.576 59.9406 19.472V18.096H57.3006C55.6686 18.096 55.1406 18.736 55.1406 19.6C55.1406 20.576 55.9246 21.184 57.2686 21.184ZM65.2501 15.232C65.7781 14.112 66.8501 13.52 68.4021 13.52V14.624C68.3061 14.624 68.2101 14.608 68.1301 14.608C66.3701 14.608 65.2981 15.728 65.2981 17.712V22H64.1621V13.584H65.2501V15.232Z" fill="#F1F1E5"/>
</svg>
