<svg width="1002" height="551" viewBox="0 0 1002 551" fill="none" xmlns="http://www.w3.org/2000/svg">
<g clip-path="url(#clip0_142_120)">
<path d="M946.03 0C915.124 0 890.062 25.021 890.062 55.9032C890.062 86.7853 915.112 111.806 946.03 111.806C976.948 111.806 1002 86.7853 1002 55.9032C1002 25.021 976.948 0 946.03 0ZM945.893 92.795C926.757 92.795 911.315 76.2742 911.384 55.8918C911.464 35.5093 927.031 18.9886 946.168 18.9886C965.304 18.9886 980.746 35.5093 980.677 55.8918C980.597 76.2742 965.029 92.795 945.893 92.795Z" fill="#575756" fill-opacity="0.2"/>
<path d="M149.237 77.1863L98.2907 2.66016H74.6133V3.41422V109.131H95.9344V34.6048L146.881 109.131H170.558V2.66016H149.237V77.1863Z" fill="#575756" fill-opacity="0.2"/>
<path d="M21.3211 2.66016H0V109.131H21.3211V2.66016Z" fill="#575756" fill-opacity="0.2"/>
<path d="M482.345 2.66016H461.023V109.131H482.345V2.66016Z" fill="#575756" fill-opacity="0.2"/>
<path d="M714.187 70.5369C714.187 83.0131 704.03 93.1587 691.539 93.1587C679.049 93.1587 668.891 83.0131 668.891 70.5369V2.66016H647.57V67.8748C647.57 92.0961 667.301 111.793 691.539 111.793C715.777 111.793 735.508 92.0847 735.508 67.8748V2.66016H714.187V70.5369Z" fill="#575756" fill-opacity="0.2"/>
<path d="M378.415 2.66016H367.754H338.438V21.2946H367.754V109.131H389.075V21.2946H418.392V2.66016H389.075H378.415Z" fill="#575756" fill-opacity="0.2"/>
<path d="M564.95 2.66016H554.289H524.984V21.2946H554.289V109.131H554.301H575.611H575.622L575.611 21.2946H604.927V2.66016H575.611H564.95Z" fill="#575756" fill-opacity="0.2"/>
<path d="M818.118 2.66016H807.457H778.152V21.2946H807.457V109.131H828.779V21.2946H858.095V2.66016H828.779H818.118Z" fill="#575756" fill-opacity="0.2"/>
<path d="M289.014 55.9032C283.077 51.6416 273.034 48.9567 261.482 46.0204C248.122 42.6272 240.618 40.5707 239.772 31.9447C239.257 26.6434 243.764 18.6344 261.093 18.6344C274.91 18.6344 287.607 29.1912 287.744 29.2826L298.965 12.3506C298.199 11.8479 280.103 0 259.755 0C221.63 0 218.668 25.4666 218.668 33.27C218.668 41.0734 222.591 50.4305 230.198 55.8918C236.134 60.1533 246.177 62.8382 257.73 65.7745C271.09 69.1792 278.594 71.2357 279.44 79.8503C279.966 85.1515 275.448 93.1606 258.119 93.1606C244.313 93.1606 231.605 82.6037 231.467 82.5123L220.246 99.4444C221.001 99.9471 239.108 111.795 259.457 111.795C297.581 111.795 300.544 86.3283 300.544 78.525C300.544 70.7216 296.62 61.3644 289.014 55.9032Z" fill="#575756" fill-opacity="0.2"/>
<path d="M623.583 308.778H564.95V284.819H618.253V266.185H564.95V239.564H623.583V220.93H543.641V327.401H623.583V308.778Z" fill="#BEAB56" fill-opacity="0.2"/>
<path d="M490.34 220.93H469.019V295.467L418.072 220.93H394.406V221.684V327.401H415.727V252.874L466.674 327.401H490.34V220.93Z" fill="#BEAB56" fill-opacity="0.2"/>
<path d="M293.141 239.564H345.083L351.763 220.93H271.82V327.401H293.141V295.467H325.02L331.712 276.833H293.141V239.564Z" fill="#BEAB56" fill-opacity="0.2"/>
<path d="M95.9335 274.171C95.9335 244.82 72.0159 220.93 42.6308 220.93H0V327.401H42.6422C72.0273 327.401 95.9449 303.522 95.9449 274.159L95.9335 274.171ZM21.3211 239.564H42.6422C60.2801 239.564 74.6238 255.091 74.6238 274.171C74.6238 293.251 60.2801 308.778 42.6422 308.778H21.3211V239.576V239.564Z" fill="#BEAB56" fill-opacity="0.2"/>
<path d="M644.825 441.859H623.504V548.33H644.825V441.859Z" fill="#BEAB56" fill-opacity="0.2"/>
<path d="M794.05 479.128C794.05 458.574 777.316 441.859 756.738 441.859H698.105V548.33H719.427V516.386H754.428L765.843 548.33H788.709L775.475 511.29C786.558 504.823 794.039 492.838 794.039 479.117L794.05 479.128ZM756.738 497.763H719.427V460.494H756.738C765.557 460.494 772.729 468.857 772.729 479.128C772.729 489.399 765.557 497.763 756.738 497.763Z" fill="#BEAB56" fill-opacity="0.2"/>
<path d="M490.258 548.342H570.2V529.707H511.567V505.749H559.54V487.114H511.567V460.494H570.2V441.859H490.258V548.342Z" fill="#BEAB56" fill-opacity="0.2"/>
<path d="M55.9679 439.195C25.0614 439.195 0 464.216 0 495.098C0 525.981 25.05 551.002 55.9679 551.002C86.8857 551.002 111.936 525.981 111.936 495.098C111.936 464.216 86.8857 439.195 55.9679 439.195ZM55.8192 532.002C36.6828 532.002 21.241 515.481 21.3097 495.098C21.3897 474.716 36.9573 458.195 56.0937 458.195C75.2301 458.195 90.6718 474.716 90.6032 495.098C90.5231 515.481 74.9555 532.002 55.8192 532.002Z" fill="#BEAB56" fill-opacity="0.2"/>
<path d="M175.888 529.707V441.859H154.566V548.342H234.509L227.829 529.707H175.888Z" fill="#BEAB56" fill-opacity="0.2"/>
<path d="M298.473 441.859H277.152V548.33H298.473V441.859Z" fill="#BEAB56" fill-opacity="0.2"/>
<path d="M394.36 527.045L363.671 441.859H341.023L379.216 548.342H409.516L447.698 441.859H425.061L394.36 527.045Z" fill="#BEAB56" fill-opacity="0.2"/>
<path d="M894.513 441.859H864.224L826.031 548.342H848.679L879.368 463.156L910.069 548.342H932.717L894.513 441.859Z" fill="#BEAB56" fill-opacity="0.2"/>
<path d="M206.53 327.401H229.178L190.974 220.93H160.685L122.504 327.401H145.14L175.841 242.226L206.53 327.401Z" fill="#BEAB56" fill-opacity="0.2"/>
</g>
<defs>
<clipPath id="clip0_142_120">
<rect width="1002" height="551" fill="white"/>
</clipPath>
</defs>
</svg>
