<svg width="34" height="34" viewBox="0 0 34 34" fill="none" xmlns="http://www.w3.org/2000/svg">
<rect width="34" height="34" rx="17" fill="white"/>
<path d="M17 11.6094C19.9531 11.6094 22.3906 14.0469 22.3906 17C22.3906 20 19.9531 22.3906 17 22.3906C14 22.3906 11.6094 20 11.6094 17C11.6094 14.0469 14 11.6094 17 11.6094ZM17 20.5156C18.9219 20.5156 20.4688 18.9688 20.4688 17C20.4688 15.0781 18.9219 13.5312 17 13.5312C15.0312 13.5312 13.4844 15.0781 13.4844 17C13.4844 18.9688 15.0781 20.5156 17 20.5156ZM23.8438 11.4219C23.8438 12.125 23.2812 12.6875 22.5781 12.6875C21.875 12.6875 21.3125 12.125 21.3125 11.4219C21.3125 10.7188 21.875 10.1562 22.5781 10.1562C23.2812 10.1562 23.8438 10.7188 23.8438 11.4219ZM27.4062 12.6875C27.5 14.4219 27.5 19.625 27.4062 21.3594C27.3125 23.0469 26.9375 24.5 25.7188 25.7656C24.5 26.9844 23 27.3594 21.3125 27.4531C19.5781 27.5469 14.375 27.5469 12.6406 27.4531C10.9531 27.3594 9.5 26.9844 8.23438 25.7656C7.01562 24.5 6.64062 23.0469 6.54688 21.3594C6.45312 19.625 6.45312 14.4219 6.54688 12.6875C6.64062 11 7.01562 9.5 8.23438 8.28125C9.5 7.0625 10.9531 6.6875 12.6406 6.59375C14.375 6.5 19.5781 6.5 21.3125 6.59375C23 6.6875 24.5 7.0625 25.7188 8.28125C26.9375 9.5 27.3125 11 27.4062 12.6875ZM25.1562 23.1875C25.7188 21.8281 25.5781 18.5469 25.5781 17C25.5781 15.5 25.7188 12.2188 25.1562 10.8125C24.7812 9.92188 24.0781 9.17188 23.1875 8.84375C21.7812 8.28125 18.5 8.42188 17 8.42188C15.4531 8.42188 12.1719 8.28125 10.8125 8.84375C9.875 9.21875 9.17188 9.92188 8.79688 10.8125C8.23438 12.2188 8.375 15.5 8.375 17C8.375 18.5469 8.23438 21.8281 8.79688 23.1875C9.17188 24.125 9.875 24.8281 10.8125 25.2031C12.1719 25.7656 15.4531 25.625 17 25.625C18.5 25.625 21.7812 25.7656 23.1875 25.2031C24.0781 24.8281 24.8281 24.125 25.1562 23.1875Z" fill="#BFAB5C"/>
</svg>
